<svg xmlns="http://www.w3.org/2000/svg" viewBox="0 0 1600 900" width="1600" height="900" font-family="Helvetica, Arial, sans-serif" role="img" aria-label="Campus AI service on idle GPUs">
<defs><marker id="mdefault" viewBox="0 0 10 10" refX="9" refY="5" markerWidth="7" markerHeight="7" orient="auto-start-reverse"><path d="M0,0 L10,5 L0,10 z" fill="#52514e"/></marker><marker id="mdefaults" viewBox="0 0 10 10" refX="1" refY="5" markerWidth="7" markerHeight="7" orient="auto-start-reverse"><path d="M0,0 L10,5 L0,10 z" fill="#52514e"/></marker><marker id="mkv" viewBox="0 0 10 10" refX="9" refY="5" markerWidth="7" markerHeight="7" orient="auto-start-reverse"><path d="M0,0 L10,5 L0,10 z" fill="#eb6834"/></marker><marker id="mkvs" viewBox="0 0 10 10" refX="1" refY="5" markerWidth="7" markerHeight="7" orient="auto-start-reverse"><path d="M0,0 L10,5 L0,10 z" fill="#eb6834"/></marker><marker id="mdynamo" viewBox="0 0 10 10" refX="9" refY="5" markerWidth="7" markerHeight="7" orient="auto-start-reverse"><path d="M0,0 L10,5 L0,10 z" fill="#5f9400"/></marker><marker id="mdynamos" viewBox="0 0 10 10" refX="1" refY="5" markerWidth="7" markerHeight="7" orient="auto-start-reverse"><path d="M0,0 L10,5 L0,10 z" fill="#5f9400"/></marker><marker id="mclient" viewBox="0 0 10 10" refX="9" refY="5" markerWidth="7" markerHeight="7" orient="auto-start-reverse"><path d="M0,0 L10,5 L0,10 z" fill="#2a78d6"/></marker><marker id="mclients" viewBox="0 0 10 10" refX="1" refY="5" markerWidth="7" markerHeight="7" orient="auto-start-reverse"><path d="M0,0 L10,5 L0,10 z" fill="#2a78d6"/></marker></defs>
<rect width="1600" height="900" fill="#fcfcfb"/>
<text x="60" y="70.0" font-size="36" fill="#0b0b0b" font-weight="700" text-anchor="start">Campus AI service on idle GPUs</text>
<text x="60" y="108.0" font-size="20" fill="#52514e" font-weight="400" text-anchor="start">Research jobs keep priority; the service harvests idle cycles and restarts in minutes from a shared model cache</text>
<rect x="60" y="170" width="280" height="480" rx="10" fill="#e8f1fc" stroke="#2a78d6" stroke-width="2"/>
<text x="200" y="205.0" font-size="22" fill="#0d366b" font-weight="700" text-anchor="middle">Users</text>
<rect x="80" y="230" width="240" height="115" rx="10" fill="#fcfcfb" stroke="#c9c8c2" stroke-width="2"/>
<text x="200.0" y="269.3" font-size="17" fill="#52514e" font-weight="700" text-anchor="middle">Students</text>
<text x="200.0" y="293.2" font-size="14" fill="#52514e" font-weight="400" text-anchor="middle">coding agents in</text>
<text x="200.0" y="311.4" font-size="14" fill="#52514e" font-weight="400" text-anchor="middle">terminal &amp; IDE</text>
<rect x="80" y="365" width="240" height="115" rx="10" fill="#fcfcfb" stroke="#c9c8c2" stroke-width="2"/>
<text x="200.0" y="404.3" font-size="17" fill="#52514e" font-weight="700" text-anchor="middle">Faculty &amp; staff</text>
<text x="200.0" y="428.2" font-size="14" fill="#52514e" font-weight="400" text-anchor="middle">Open WebUI chat</text>
<text x="200.0" y="446.4" font-size="14" fill="#52514e" font-weight="400" text-anchor="middle">course tools</text>
<rect x="80" y="500" width="240" height="115" rx="10" fill="#fcfcfb" stroke="#c9c8c2" stroke-width="2"/>
<text x="200.0" y="539.3" font-size="17" fill="#52514e" font-weight="700" text-anchor="middle">Researchers</text>
<text x="200.0" y="563.2" font-size="14" fill="#52514e" font-weight="400" text-anchor="middle">evals · batch jobs</text>
<text x="200.0" y="581.4" font-size="14" fill="#52514e" font-weight="400" text-anchor="middle">trace studies</text>
<rect x="390" y="170" width="300" height="480" rx="10" fill="#f0efec" stroke="#8a8984" stroke-width="2"/>
<text x="540" y="205.0" font-size="20" fill="#2e2d2a" font-weight="700" text-anchor="middle">Gateway (CPU VM)</text>
<rect x="410" y="230" width="260" height="120" rx="10" fill="#f0efec" stroke="#8a8984" stroke-width="2"/>
<text x="540.0" y="271.6" font-size="16" fill="#2e2d2a" font-weight="700" text-anchor="middle">SSO + per-course keys</text>
<text x="540.0" y="295.0" font-size="14" fill="#2e2d2a" font-weight="400" text-anchor="middle">LiteLLM virtual keys</text>
<text x="540.0" y="313.2" font-size="14" fill="#2e2d2a" font-weight="400" text-anchor="middle">Open WebUI (OIDC)</text>
<rect x="410" y="365" width="260" height="120" rx="10" fill="#f0efec" stroke="#8a8984" stroke-width="2"/>
<text x="540.0" y="399.4" font-size="16" fill="#2e2d2a" font-weight="700" text-anchor="middle">Fairness</text>
<text x="540.0" y="421.8" font-size="13" fill="#2e2d2a" font-weight="400" text-anchor="middle">rpm/tpm per key</text>
<text x="540.0" y="438.6" font-size="13" fill="#2e2d2a" font-weight="400" text-anchor="middle">concurrency cap below</text>
<text x="540.0" y="455.6" font-size="13" fill="#2e2d2a" font-weight="400" text-anchor="middle">the measured cliff</text>
<rect x="410" y="500" width="260" height="130" rx="10" fill="#f0efec" stroke="#8a8984" stroke-width="2"/>
<text x="540.0" y="539.4" font-size="16" fill="#2e2d2a" font-weight="700" text-anchor="middle">Usage &amp; governance</text>
<text x="540.0" y="561.7" font-size="13" fill="#2e2d2a" font-weight="400" text-anchor="middle">usage metadata by default</text>
<text x="540.0" y="578.6" font-size="13" fill="#2e2d2a" font-weight="400" text-anchor="middle">prompt text only with</text>
<text x="540.0" y="595.5" font-size="13" fill="#2e2d2a" font-weight="400" text-anchor="middle">opt-in consent</text>
<path d="M340.0,410.0 L390.0,410.0" fill="none" stroke="#2a78d6" stroke-width="3" marker-end="url(#mclient)"/>
<rect x="740" y="170" width="480" height="480" rx="10" fill="#eef7df" stroke="#5f9400" stroke-width="2"/>
<text x="980" y="205.0" font-size="20" fill="#233a00" font-weight="700" text-anchor="middle">Slurm cluster (idle GPU nodes)</text>
<rect x="760" y="230" width="440" height="110" rx="10" fill="#76b900" stroke="#5f9400" stroke-width="2"/>
<text x="980.0" y="276.0" font-size="18" fill="#ffffff" font-weight="700" text-anchor="middle">Dynamo frontend + KV router</text>
<text x="980.0" y="300.4" font-size="14" fill="#ffffff" font-weight="400" text-anchor="middle">serve.sbatch · preemptible QOS · --requeue</text>
<rect x="770" y="370" width="96" height="70" rx="6" fill="#1f1f1d" stroke="#1f1f1d" stroke-width="2"/>
<text x="818.0" y="401.0" font-size="16" fill="#ffffff" font-weight="700" text-anchor="middle">GPU 0</text>
<text x="818.0" y="421.0" font-size="12" fill="#ffffff" font-weight="400" text-anchor="middle">replica</text>
<rect x="770" y="455" width="96" height="70" rx="6" fill="#1f1f1d" stroke="#1f1f1d" stroke-width="2"/>
<text x="818.0" y="486.0" font-size="16" fill="#ffffff" font-weight="700" text-anchor="middle">GPU 4</text>
<text x="818.0" y="506.0" font-size="12" fill="#ffffff" font-weight="400" text-anchor="middle">replica</text>
<rect x="878" y="370" width="96" height="70" rx="6" fill="#1f1f1d" stroke="#1f1f1d" stroke-width="2"/>
<text x="926.0" y="401.0" font-size="16" fill="#ffffff" font-weight="700" text-anchor="middle">GPU 1</text>
<text x="926.0" y="421.0" font-size="12" fill="#ffffff" font-weight="400" text-anchor="middle">replica</text>
<rect x="878" y="455" width="96" height="70" rx="6" fill="#1f1f1d" stroke="#1f1f1d" stroke-width="2"/>
<text x="926.0" y="486.0" font-size="16" fill="#ffffff" font-weight="700" text-anchor="middle">GPU 5</text>
<text x="926.0" y="506.0" font-size="12" fill="#ffffff" font-weight="400" text-anchor="middle">replica</text>
<rect x="986" y="370" width="96" height="70" rx="6" fill="#1f1f1d" stroke="#1f1f1d" stroke-width="2"/>
<text x="1034.0" y="401.0" font-size="16" fill="#ffffff" font-weight="700" text-anchor="middle">GPU 2</text>
<text x="1034.0" y="421.0" font-size="12" fill="#ffffff" font-weight="400" text-anchor="middle">replica</text>
<rect x="986" y="455" width="96" height="70" rx="6" fill="#1f1f1d" stroke="#1f1f1d" stroke-width="2"/>
<text x="1034.0" y="486.0" font-size="16" fill="#ffffff" font-weight="700" text-anchor="middle">GPU 6</text>
<text x="1034.0" y="506.0" font-size="12" fill="#ffffff" font-weight="400" text-anchor="middle">replica</text>
<rect x="1094" y="370" width="96" height="70" rx="6" fill="#1f1f1d" stroke="#1f1f1d" stroke-width="2"/>
<text x="1142.0" y="401.0" font-size="16" fill="#ffffff" font-weight="700" text-anchor="middle">GPU 3</text>
<text x="1142.0" y="421.0" font-size="12" fill="#ffffff" font-weight="400" text-anchor="middle">replica</text>
<rect x="1094" y="455" width="96" height="70" rx="6" fill="#1f1f1d" stroke="#1f1f1d" stroke-width="2"/>
<text x="1142.0" y="486.0" font-size="16" fill="#ffffff" font-weight="700" text-anchor="middle">GPU 7</text>
<text x="1142.0" y="506.0" font-size="12" fill="#ffffff" font-weight="400" text-anchor="middle">replica</text>
<text x="980" y="560.0" font-size="15" fill="#233a00" font-weight="600" text-anchor="middle">A100 → B300: same launcher, model profile per tier</text>
<text x="980" y="590.0" font-size="15" fill="#233a00" font-weight="600" text-anchor="middle">watchdog: real 1-token probe → requeue</text>
<path d="M690.0,400.0 L740.0,400.0" fill="none" stroke="#5f9400" stroke-width="3" marker-end="url(#mdynamo)"/>
<rect x="1270" y="170" width="270" height="220" rx="10" fill="#f0efec" stroke="#8a8984" stroke-width="2"/>
<text x="1405.0" y="252.7" font-size="17" fill="#2e2d2a" font-weight="700" text-anchor="middle">Shared storage</text>
<text x="1405.0" y="276.6" font-size="14" fill="#2e2d2a" font-weight="400" text-anchor="middle">model cache (weights)</text>
<text x="1405.0" y="294.8" font-size="14" fill="#2e2d2a" font-weight="400" text-anchor="middle">compile cache</text>
<text x="1405.0" y="313.0" font-size="14" fill="#2e2d2a" font-weight="400" text-anchor="middle">restart = load, not download</text>
<rect x="1270" y="420" width="270" height="230" rx="10" fill="#fdeee6" stroke="#eb6834" stroke-width="2"/>
<text x="1405.0" y="507.7" font-size="17" fill="#6b2a0e" font-weight="700" text-anchor="middle">Research data (opt-in)</text>
<text x="1405.0" y="531.6" font-size="14" fill="#6b2a0e" font-weight="400" text-anchor="middle">consented traces → eval sets</text>
<text x="1405.0" y="549.8" font-size="14" fill="#6b2a0e" font-weight="400" text-anchor="middle">→ LoRA / SFT with NeMo</text>
<text x="1405.0" y="568.0" font-size="14" fill="#6b2a0e" font-weight="400" text-anchor="middle">→ served as adapters</text>
<path d="M1270.0,280.0 L1220.0,280.0" fill="none" stroke="#52514e" stroke-width="2.5" stroke-dasharray="8 6" marker-end="url(#mdefault)"/>
<path d="M1220.0,540.0 L1270.0,540.0" fill="none" stroke="#eb6834" stroke-width="2.5" stroke-dasharray="8 6" marker-end="url(#mkv)"/>
<rect x="60" y="700" width="1480" height="150" rx="10" fill="#fcfcfb" stroke="#c9c8c2" stroke-width="2"/>
<text x="80" y="740.0" font-size="19" fill="#0b0b0b" font-weight="700" text-anchor="start">Serving patterns</text>
<text x="80" y="785.0" font-size="17" fill="#233a00" font-weight="700" text-anchor="start">Preemptible QOS</text>
<text x="80" y="812.0" font-size="15" fill="#52514e" font-weight="400" text-anchor="start">research jobs preempt; Slurm requeues</text>
<text x="450" y="785.0" font-size="17" fill="#233a00" font-weight="700" text-anchor="start">Serving windows</text>
<text x="450" y="812.0" font-size="15" fill="#52514e" font-weight="400" text-anchor="start">nights · weekends · term breaks</text>
<text x="820" y="785.0" font-size="17" fill="#233a00" font-weight="700" text-anchor="start">Reserved slice</text>
<text x="820" y="812.0" font-size="15" fill="#52514e" font-weight="400" text-anchor="start">one node for the service</text>
<text x="1190" y="785.0" font-size="17" fill="#233a00" font-weight="700" text-anchor="start">Burst replicas</text>
<text x="1190" y="812.0" font-size="15" fill="#52514e" font-weight="400" text-anchor="start">extra jobs join the same frontend</text>
</svg>
