<svg xmlns="http://www.w3.org/2000/svg" viewBox="0 0 1680 500" width="1680" height="500" font-family="Helvetica, Arial, sans-serif" role="img" aria-label="KV-aware vs round-robin routing (agentic trace)">
<rect width="1680" height="500" fill="#fcfcfb"/>
<text x="60" y="50" font-size="28" font-weight="700" fill="#0b0b0b">KV-aware vs round-robin routing (agentic trace)</text>
<text x="60" y="82" font-size="16" fill="#52514e">Qwen3.5-122B-A10B NVFP4 · 8 × B300 · Dynamo 1.5.0 · agentic coding trace (64K median prompt, shared prefixes) · x-axis = concurrent requests</text>
<rect x="60" y="100" width="18" height="18" rx="3" fill="#76b900"/>
<text x="86" y="114" font-size="16" fill="#52514e">KV-aware router</text>
<rect x="320" y="100" width="18" height="18" rx="3" fill="#2a78d6"/>
<text x="346" y="114" font-size="16" fill="#52514e">Round-robin</text>
<text x="60" y="142" font-size="17" font-weight="700" fill="#0b0b0b">TTFT p50 (s) ↓ better</text>
<line x1="60" y1="450.0" x2="420" y2="450.0" stroke="#e4e3df" stroke-width="1"/>
<text x="54" y="454.0" font-size="12" fill="#52514e" text-anchor="end">0.00</text>
<line x1="60" y1="375.0" x2="420" y2="375.0" stroke="#e4e3df" stroke-width="1"/>
<text x="54" y="379.0" font-size="12" fill="#52514e" text-anchor="end">0.30</text>
<line x1="60" y1="300.0" x2="420" y2="300.0" stroke="#e4e3df" stroke-width="1"/>
<text x="54" y="304.0" font-size="12" fill="#52514e" text-anchor="end">0.60</text>
<line x1="60" y1="225.0" x2="420" y2="225.0" stroke="#e4e3df" stroke-width="1"/>
<text x="54" y="229.0" font-size="12" fill="#52514e" text-anchor="end">0.90</text>
<line x1="60" y1="150.0" x2="420" y2="150.0" stroke="#e4e3df" stroke-width="1"/>
<text x="54" y="154.0" font-size="12" fill="#52514e" text-anchor="end">1.20</text>
<rect x="93.0" y="382.9" width="26.0" height="67.1" fill="#76b900"><title>agg8-kv c32: 0.27 s</title></rect>
<text x="106.0" y="377.9" font-size="11" fill="#52514e" text-anchor="middle">0.27</text>
<rect x="121.0" y="385.5" width="26.0" height="64.5" fill="#2a78d6"><title>agg8-rr c32: 0.26 s</title></rect>
<text x="134.0" y="380.5" font-size="11" fill="#52514e" text-anchor="middle">0.26</text>
<text x="120.0" y="470" font-size="14" fill="#52514e" text-anchor="middle">c32</text>
<rect x="213.0" y="369.1" width="26.0" height="80.9" fill="#76b900"><title>agg8-kv c64: 0.32 s</title></rect>
<text x="226.0" y="364.1" font-size="11" fill="#52514e" text-anchor="middle">0.32</text>
<rect x="241.0" y="379.1" width="26.0" height="70.9" fill="#2a78d6"><title>agg8-rr c64: 0.28 s</title></rect>
<text x="254.0" y="374.1" font-size="11" fill="#52514e" text-anchor="middle">0.28</text>
<text x="240.0" y="470" font-size="14" fill="#52514e" text-anchor="middle">c64</text>
<rect x="333.0" y="339.7" width="26.0" height="110.3" fill="#76b900"><title>agg8-kv c128: 0.44 s</title></rect>
<text x="346.0" y="334.7" font-size="11" fill="#52514e" text-anchor="middle">0.44</text>
<rect x="361.0" y="225.5" width="26.0" height="224.5" fill="#2a78d6"><title>agg8-rr c128: 0.90 s</title></rect>
<text x="374.0" y="220.5" font-size="11" fill="#52514e" text-anchor="middle">0.90</text>
<text x="360.0" y="470" font-size="14" fill="#52514e" text-anchor="middle">c128</text>
<text x="460" y="142" font-size="17" font-weight="700" fill="#0b0b0b">TTFT p99 (s) ↓ better</text>
<line x1="460" y1="450.0" x2="820" y2="450.0" stroke="#e4e3df" stroke-width="1"/>
<text x="454" y="454.0" font-size="12" fill="#52514e" text-anchor="end">0.00</text>
<line x1="460" y1="375.0" x2="820" y2="375.0" stroke="#e4e3df" stroke-width="1"/>
<text x="454" y="379.0" font-size="12" fill="#52514e" text-anchor="end">3.75</text>
<line x1="460" y1="300.0" x2="820" y2="300.0" stroke="#e4e3df" stroke-width="1"/>
<text x="454" y="304.0" font-size="12" fill="#52514e" text-anchor="end">7.50</text>
<line x1="460" y1="225.0" x2="820" y2="225.0" stroke="#e4e3df" stroke-width="1"/>
<text x="454" y="229.0" font-size="12" fill="#52514e" text-anchor="end">11.25</text>
<line x1="460" y1="150.0" x2="820" y2="150.0" stroke="#e4e3df" stroke-width="1"/>
<text x="454" y="154.0" font-size="12" fill="#52514e" text-anchor="end">15.00</text>
<rect x="493.0" y="322.4" width="26.0" height="127.6" fill="#76b900"><title>agg8-kv c32: 6.38 s</title></rect>
<text x="506.0" y="317.4" font-size="11" fill="#52514e" text-anchor="middle">6.38</text>
<rect x="521.0" y="306.1" width="26.0" height="143.9" fill="#2a78d6"><title>agg8-rr c32: 7.20 s</title></rect>
<text x="534.0" y="301.1" font-size="11" fill="#52514e" text-anchor="middle">7.20</text>
<text x="520.0" y="470" font-size="14" fill="#52514e" text-anchor="middle">c32</text>
<rect x="613.0" y="318.4" width="26.0" height="131.6" fill="#76b900"><title>agg8-kv c64: 6.58 s</title></rect>
<text x="626.0" y="313.4" font-size="11" fill="#52514e" text-anchor="middle">6.58</text>
<rect x="641.0" y="276.5" width="26.0" height="173.5" fill="#2a78d6"><title>agg8-rr c64: 8.68 s</title></rect>
<text x="654.0" y="271.5" font-size="11" fill="#52514e" text-anchor="middle">8.68</text>
<text x="640.0" y="470" font-size="14" fill="#52514e" text-anchor="middle">c64</text>
<rect x="733.0" y="271.8" width="26.0" height="178.2" fill="#76b900"><title>agg8-kv c128: 8.91 s</title></rect>
<text x="746.0" y="266.8" font-size="11" fill="#52514e" text-anchor="middle">8.91</text>
<rect x="761.0" y="235.0" width="26.0" height="215.0" fill="#2a78d6"><title>agg8-rr c128: 10.75 s</title></rect>
<text x="774.0" y="230.0" font-size="11" fill="#52514e" text-anchor="middle">10.75</text>
<text x="760.0" y="470" font-size="14" fill="#52514e" text-anchor="middle">c128</text>
<text x="860" y="142" font-size="17" font-weight="700" fill="#0b0b0b">Output tok/s per GPU (tok/s) ↑ better</text>
<line x1="860" y1="450.0" x2="1220" y2="450.0" stroke="#e4e3df" stroke-width="1"/>
<text x="854" y="454.0" font-size="12" fill="#52514e" text-anchor="end">0.0</text>
<line x1="860" y1="375.0" x2="1220" y2="375.0" stroke="#e4e3df" stroke-width="1"/>
<text x="854" y="379.0" font-size="12" fill="#52514e" text-anchor="end">200</text>
<line x1="860" y1="300.0" x2="1220" y2="300.0" stroke="#e4e3df" stroke-width="1"/>
<text x="854" y="304.0" font-size="12" fill="#52514e" text-anchor="end">400</text>
<line x1="860" y1="225.0" x2="1220" y2="225.0" stroke="#e4e3df" stroke-width="1"/>
<text x="854" y="229.0" font-size="12" fill="#52514e" text-anchor="end">600</text>
<line x1="860" y1="150.0" x2="1220" y2="150.0" stroke="#e4e3df" stroke-width="1"/>
<text x="854" y="154.0" font-size="12" fill="#52514e" text-anchor="end">800</text>
<rect x="893.0" y="311.2" width="26.0" height="138.8" fill="#76b900"><title>agg8-kv c32: 370 tok/s</title></rect>
<text x="906.0" y="306.2" font-size="11" fill="#52514e" text-anchor="middle">370</text>
<rect x="921.0" y="321.8" width="26.0" height="128.2" fill="#2a78d6"><title>agg8-rr c32: 342 tok/s</title></rect>
<text x="934.0" y="316.8" font-size="11" fill="#52514e" text-anchor="middle">342</text>
<text x="920.0" y="470" font-size="14" fill="#52514e" text-anchor="middle">c32</text>
<rect x="1013.0" y="252.1" width="26.0" height="197.9" fill="#76b900"><title>agg8-kv c64: 528 tok/s</title></rect>
<text x="1026.0" y="247.1" font-size="11" fill="#52514e" text-anchor="middle">528</text>
<rect x="1041.0" y="286.0" width="26.0" height="164.0" fill="#2a78d6"><title>agg8-rr c64: 437 tok/s</title></rect>
<text x="1054.0" y="281.0" font-size="11" fill="#52514e" text-anchor="middle">437</text>
<text x="1040.0" y="470" font-size="14" fill="#52514e" text-anchor="middle">c64</text>
<rect x="1133.0" y="206.4" width="26.0" height="243.6" fill="#76b900"><title>agg8-kv c128: 650 tok/s</title></rect>
<text x="1146.0" y="201.4" font-size="11" fill="#52514e" text-anchor="middle">650</text>
<rect x="1161.0" y="235.9" width="26.0" height="214.1" fill="#2a78d6"><title>agg8-rr c128: 571 tok/s</title></rect>
<text x="1174.0" y="230.9" font-size="11" fill="#52514e" text-anchor="middle">571</text>
<text x="1160.0" y="470" font-size="14" fill="#52514e" text-anchor="middle">c128</text>
<text x="1260" y="142" font-size="17" font-weight="700" fill="#0b0b0b">Prefix-cache hit rate (%) ↑ better</text>
<line x1="1260" y1="450.0" x2="1620" y2="450.0" stroke="#e4e3df" stroke-width="1"/>
<text x="1254" y="454.0" font-size="12" fill="#52514e" text-anchor="end">0%</text>
<line x1="1260" y1="375.0" x2="1620" y2="375.0" stroke="#e4e3df" stroke-width="1"/>
<text x="1254" y="379.0" font-size="12" fill="#52514e" text-anchor="end">20%</text>
<line x1="1260" y1="300.0" x2="1620" y2="300.0" stroke="#e4e3df" stroke-width="1"/>
<text x="1254" y="304.0" font-size="12" fill="#52514e" text-anchor="end">40%</text>
<line x1="1260" y1="225.0" x2="1620" y2="225.0" stroke="#e4e3df" stroke-width="1"/>
<text x="1254" y="229.0" font-size="12" fill="#52514e" text-anchor="end">60%</text>
<line x1="1260" y1="150.0" x2="1620" y2="150.0" stroke="#e4e3df" stroke-width="1"/>
<text x="1254" y="154.0" font-size="12" fill="#52514e" text-anchor="end">80%</text>
<rect x="1293.0" y="194.2" width="26.0" height="255.8" fill="#76b900"><title>agg8-kv c32: 68% %</title></rect>
<text x="1306.0" y="189.2" font-size="11" fill="#52514e" text-anchor="middle">68%</text>
<rect x="1321.0" y="212.0" width="26.0" height="238.0" fill="#2a78d6"><title>agg8-rr c32: 63% %</title></rect>
<text x="1334.0" y="207.0" font-size="11" fill="#52514e" text-anchor="middle">63%</text>
<text x="1320.0" y="470" font-size="14" fill="#52514e" text-anchor="middle">c32</text>
<rect x="1413.0" y="187.3" width="26.0" height="262.7" fill="#76b900"><title>agg8-kv c64: 70% %</title></rect>
<text x="1426.0" y="182.3" font-size="11" fill="#52514e" text-anchor="middle">70%</text>
<rect x="1441.0" y="214.5" width="26.0" height="235.5" fill="#2a78d6"><title>agg8-rr c64: 63% %</title></rect>
<text x="1454.0" y="209.5" font-size="11" fill="#52514e" text-anchor="middle">63%</text>
<text x="1440.0" y="470" font-size="14" fill="#52514e" text-anchor="middle">c64</text>
<rect x="1533.0" y="191.9" width="26.0" height="258.1" fill="#76b900"><title>agg8-kv c128: 69% %</title></rect>
<text x="1546.0" y="186.9" font-size="11" fill="#52514e" text-anchor="middle">69%</text>
<rect x="1561.0" y="214.0" width="26.0" height="236.0" fill="#2a78d6"><title>agg8-rr c128: 63% %</title></rect>
<text x="1574.0" y="209.0" font-size="11" fill="#52514e" text-anchor="middle">63%</text>
<text x="1560.0" y="470" font-size="14" fill="#52514e" text-anchor="middle">c128</text>
</svg>
